<svg width="99" height="84" viewBox="0 0 99 84" fill="none" xmlns="http://www.w3.org/2000/svg">
<path d="M11.4167 82.5833C17.0316 82.5833 21.5833 78.0316 21.5833 72.4167C21.5833 66.8018 17.0316 62.25 11.4167 62.25C5.80177 62.25 1.25 66.8018 1.25 72.4167C1.25 78.0316 5.80177 82.5833 11.4167 82.5833Z" stroke="#DFBB8E" stroke-width="2" stroke-linecap="round" stroke-linejoin="round"></path>
<path d="M72.4167 82.5833C78.0316 82.5833 82.5833 78.0316 82.5833 72.4167C82.5833 66.8018 78.0316 62.25 72.4167 62.25C66.8018 62.25 62.25 66.8018 62.25 72.4167C62.25 78.0316 66.8018 82.5833 72.4167 82.5833Z" stroke="#DFBB8E" stroke-width="2" stroke-linecap="round" stroke-linejoin="round"></path>
<path d="M21.5833 77.5002H62.2499M82.5832 77.5002H92.7499V47.0002C92.7499 40.2592 90.0721 33.7944 85.3055 29.0279C80.539 24.2613 74.0742 21.5835 67.3332 21.5835H62.2499L69.8749 47.0002H92.7499" stroke="#DFBB8E" stroke-width="2" stroke-linecap="round" stroke-linejoin="round"></path>
<path d="M47 77.5002V21.5835H62.25" stroke="#DFBB8E" stroke-width="2" stroke-linecap="round" stroke-linejoin="round"></path>
<path d="M1.25 72.4167V47H47" stroke="#DFBB8E" stroke-width="2" stroke-linecap="round" stroke-linejoin="round"></path>
<path d="M6.33325 47V16.5L97.8333 1.25V11.4167" stroke="#DFBB8E" stroke-width="2" stroke-linecap="round" stroke-linejoin="round"></path>
<path d="M26.6666 47V26.6667L6.33325 16.5" stroke="#DFBB8E" stroke-width="2" stroke-linecap="round" stroke-linejoin="round"></path>
</svg>

