<svg width="80" height="77" viewBox="0 0 80 77" fill="none" xmlns="http://www.w3.org/2000/svg">
<path d="M4.54545 51V68.6313C4.54545 72.7009 15.6569 76 29.3636 76C43.0703 76 54.1818 72.7009 54.1818 68.6313V51M29.3636 11.7143C13.6988 11.7143 1 14.9123 1 18.8571C1 22.802 13.6988 26 29.3636 26M1 18.8571V36.7143C1 40.3317 13.6988 43.8571 29.3636 43.8571M54.1818 51C67.7379 51 79 47.4746 79 43.8571V8.14286M29.9091 8.14286V44.45M29.3636 26C29.3636 29.6175 40.8985 33.1429 54.4545 33.1429C68.0106 33.1429 79 29.6175 79 26M54.1818 51C54.1818 47.0551 43.0703 43.8571 29.3636 43.8571C15.6569 43.8571 4.54545 47.0551 4.54545 51C4.54545 54.9449 15.6569 58.1429 29.3636 58.1429C43.0703 58.1429 54.1818 54.9449 54.1818 51ZM79 8.14286C79 4.19797 68.0106 1 54.4545 1C40.8985 1 29.9091 4.19797 29.9091 8.14286C29.9091 12.0877 40.8985 15.2857 54.4545 15.2857C68.0106 15.2857 79 12.0877 79 8.14286Z" stroke="#DFBB8E" stroke-width="2"></path>
</svg>
