<svg width="37" height="34" viewBox="0 0 37 34" fill="none" xmlns="http://www.w3.org/2000/svg">
<line x1="37" y1="33.5" x2="-5.86904e-08" y2="33.5" stroke="black"></line>
<path d="M17.5 16.2279C17.9951 16.2279 18.4853 16.1304 18.9427 15.9409C19.4001 15.7514 19.8157 15.4737 20.1658 15.1237C20.5158 14.7736 20.7935 14.358 20.983 13.9006C21.1725 13.4432 21.27 12.953 21.27 12.4579C21.27 11.9628 21.1725 11.4725 20.983 11.0151C20.7935 10.5578 20.5158 10.1422 20.1658 9.79207C19.8157 9.442 19.4001 9.1643 18.9427 8.97484C18.4853 8.78538 17.9951 8.68787 17.5 8.68787C16.5001 8.68787 15.5412 9.08506 14.8342 9.79207C14.1272 10.4991 13.73 11.458 13.73 12.4579C13.73 13.4577 14.1272 14.4166 14.8342 15.1237C15.5412 15.8307 16.5001 16.2279 17.5 16.2279V16.2279Z" stroke="black" stroke-width="1.5"></path>
<path d="M7.37438 10.2587C9.7548 -0.205455 25.2577 -0.193371 27.6261 10.2708C29.0156 16.4091 25.1973 21.605 21.8502 24.8191C20.6806 25.9471 19.1191 26.5775 17.4942 26.5775C15.8693 26.5775 14.3077 25.9471 13.1381 24.8191C9.80314 21.605 5.9848 16.397 7.37438 10.2587V10.2587Z" stroke="black" stroke-width="1.5"></path>
</svg>
