<svg width="37" height="32" viewBox="0 0 37 32" fill="none" xmlns="http://www.w3.org/2000/svg">
<line x1="37" y1="31.5" x2="-5.86904e-08" y2="31.5" stroke="black"></line>
<path d="M24.448 19.4479L26.7605 18.2917V15.3958M19.8125 10.1875L17.5 11.3438L19.8125 10.1875V10.1875ZM17.5 11.3438L15.1875 10.1875L17.5 11.3438ZM17.5 11.3438V14.2396V11.3438ZM26.7605 6.70834L24.448 7.86459L26.7605 6.70834ZM26.7605 6.70834L24.448 5.55209L26.7605 6.70834ZM26.7605 6.70834V9.60418V6.70834V6.70834ZM19.8125 3.23959L17.5 2.08334L15.1875 3.23959H19.8125V3.23959ZM8.23962 6.70834L10.5521 5.55209L8.23962 6.70834ZM8.23962 6.70834L10.5521 7.86459L8.23962 6.70834ZM8.23962 6.70834V9.60418V6.70834V6.70834ZM17.5 22.9167L15.1875 21.7604L17.5 22.9167ZM17.5 22.9167L19.8125 21.7604L17.5 22.9167ZM17.5 22.9167V20.0208V22.9167ZM10.5521 19.4479L8.23962 18.2917V15.3958L10.5521 19.4479Z" stroke="black" stroke-width="1.5" stroke-linecap="round" stroke-linejoin="round"></path>
</svg>
