<svg width="37" height="34" viewBox="0 0 37 34" fill="none" xmlns="http://www.w3.org/2000/svg">
<line x1="37" y1="33.5" x2="-5.86904e-08" y2="33.5" stroke="black"></line>
<path d="M6.83044 8.99001L17.5 15.1646L28.0971 9.02626M17.5 26.1121V15.1525" stroke="black" stroke-width="1.5" stroke-linecap="round" stroke-linejoin="round"></path>
<path d="M14.9988 2.99667L8.54627 6.58542C7.08419 7.395 5.88794 9.425 5.88794 11.0925V17.9196C5.88794 19.5871 7.08419 21.6171 8.54627 22.4267L14.9988 26.0154C16.3763 26.7767 18.6359 26.7767 20.0134 26.0154L26.4659 22.4267C27.9279 21.6171 29.1242 19.5871 29.1242 17.9196V11.0925C29.1242 9.425 27.9279 7.395 26.4659 6.58542L20.0134 2.99667C18.6238 2.22334 16.3763 2.22334 14.9988 2.99667V2.99667Z" stroke="black" stroke-width="1.5" stroke-linecap="round" stroke-linejoin="round"></path>
<path d="M23.5417 15.9983V11.5758L12.0746 4.95416" stroke="black" stroke-width="1.5" stroke-linecap="round" stroke-linejoin="round"></path>
</svg>
