<svg width="13" height="13" viewBox="0 0 13 13" fill="none" xmlns="http://www.w3.org/2000/svg">
<path d="M6.49641 13C4.7207 13 4.51137 12.9906 3.81842 12.9604C3.27805 12.9426 2.74467 12.8329 2.24125 12.636C1.37024 12.2975 0.681498 11.6095 0.342864 10.7396C0.153249 10.2351 0.0509749 9.70207 0.0404219 9.16328C-5.37797e-09 8.47278 0 8.24645 0 6.48703C0 4.70886 0.00938364 4.50128 0.0404219 3.81293C0.0512059 3.27489 0.153473 2.74258 0.342864 2.23874C0.68113 1.3677 1.37099 0.679105 2.24341 0.34165C2.74771 0.151515 3.28092 0.0491211 3.81987 0.0389221C4.5092 -7.24982e-08 4.73586 0 6.49641 0C8.28652 0 8.49224 0.00937008 9.17436 0.0389221C9.71464 0.0492076 10.2493 0.151587 10.7551 0.34165C11.6273 0.679487 12.317 1.36796 12.6557 2.23874C12.8485 2.74992 12.9513 3.29055 12.9596 3.83672C13 4.52722 13 4.75283 13 6.51153C13 8.27024 12.9899 8.50089 12.9596 9.18347C12.9488 9.72275 12.8463 10.2563 12.6564 10.7613C12.3169 11.6317 11.6271 12.32 10.7551 12.6584C10.25 12.8473 9.71652 12.9495 9.17725 12.9604C8.48791 13 8.26198 13 6.49641 13ZM6.47187 1.141C4.70626 1.141 4.52292 1.14965 3.83358 1.18064C3.42214 1.18609 3.01466 1.26191 2.62887 1.4048C2.05918 1.62248 1.60838 2.0708 1.38806 2.63878C1.24385 3.02822 1.16791 3.43955 1.16357 3.85473C1.12532 4.55317 1.12532 4.73625 1.12532 6.48703C1.12532 8.2169 1.13181 8.42665 1.16357 9.12076C1.17004 9.53175 1.24593 9.9387 1.38806 10.3245C1.6087 10.8921 2.05942 11.34 2.62887 11.5577C3.0144 11.7016 3.42204 11.7774 3.83358 11.7819C4.5323 11.8222 4.71637 11.8222 6.47187 11.8222C8.24249 11.8222 8.42583 11.8136 9.10939 11.7819C9.52112 11.7769 9.92888 11.7011 10.3148 11.5577C10.881 11.3382 11.3289 10.8912 11.5491 10.3259C11.6931 9.93618 11.7689 9.52461 11.7736 9.10923H11.7816C11.8126 8.42016 11.8126 8.23636 11.8126 6.47549C11.8126 4.71463 11.8047 4.52939 11.7736 3.84104C11.7671 3.43053 11.6912 3.02405 11.5491 2.63878C11.3294 2.07266 10.8815 1.62486 10.3148 1.4048C9.92895 1.26119 9.52112 1.18535 9.10939 1.18064C8.4114 1.141 8.22878 1.141 6.47187 1.141ZM6.49641 9.81631C5.14653 9.81718 3.92916 9.00594 3.41195 7.76101C2.89472 6.516 3.17955 5.08244 4.13359 4.12897C5.08763 3.17547 6.52297 2.88981 7.7702 3.40521C9.01743 3.92061 9.83085 5.13556 9.83121 6.48342C9.82919 8.32221 8.33777 9.81271 6.49641 9.81631ZM6.49641 4.31964C5.30043 4.31964 4.33092 5.28779 4.33092 6.48198C4.33092 7.67624 5.30043 8.64432 6.49641 8.64432C7.69232 8.64432 8.66187 7.67624 8.66187 6.48198C8.65905 5.28887 7.69116 4.32241 6.49641 4.31964ZM9.96114 3.80573C9.53195 3.80414 9.18511 3.45585 9.18591 3.02729C9.1867 2.59872 9.53483 2.25173 9.96403 2.25173C10.3931 2.25173 10.7413 2.59872 10.7422 3.02728C10.7423 3.23405 10.66 3.43238 10.5135 3.57845C10.3669 3.72452 10.1682 3.8063 9.96114 3.80573Z" fill="#7F7F7F"></path>
</svg>
