<svg width="13" height="13" viewBox="0 0 13 13" fill="none" xmlns="http://www.w3.org/2000/svg">
<path d="M11.7812 0H1.21875C0.548438 0 0 0.548438 0 1.21875V11.7812C0 12.4516 0.548438 13 1.21875 13H11.7812C12.4516 13 13 12.4516 13 11.7812V1.21875C13 0.548438 12.4516 0 11.7812 0ZM10.5292 9.1L9.3405 9.11788C9.3405 9.11788 9.08375 9.16906 8.749 8.9375C8.30456 8.63281 7.88531 7.83819 7.55788 7.94219C7.228 8.04619 7.23775 8.75956 7.23775 8.75956C7.23775 8.75956 7.24019 8.91231 7.16381 8.99275C7.08256 9.08131 6.92006 9.09919 6.92006 9.09919H6.3895C6.3895 9.09919 5.21625 9.17069 4.18275 8.09331C3.055 6.92006 2.0605 4.59225 2.0605 4.59225C2.0605 4.59225 2.002 4.4395 2.06538 4.36637C2.13606 4.28269 2.327 4.27781 2.327 4.27781L3.59937 4.2705C3.59937 4.2705 3.71881 4.29081 3.80494 4.35419C3.87644 4.40538 3.91381 4.50369 3.91381 4.50369C3.91381 4.50369 4.11938 5.0245 4.39156 5.49412C4.92213 6.41062 5.17075 6.61131 5.35112 6.51462C5.61275 6.37244 5.53394 5.21706 5.53394 5.21706C5.53394 5.21706 5.53881 4.79781 5.40231 4.61256C5.29588 4.46794 5.09519 4.42488 5.00906 4.41431C4.93756 4.40375 5.05456 4.23881 5.20731 4.16325C5.43563 4.05113 5.83944 4.04381 6.31719 4.04869C6.68769 4.05113 6.79737 4.07631 6.942 4.10962C7.38156 4.21606 7.23125 4.62475 7.23125 5.60544C7.23125 5.92069 7.17519 6.36188 7.40106 6.5065C7.49775 6.56988 7.73581 6.51625 8.333 5.50388C8.61494 5.02369 8.82781 4.46062 8.82781 4.46062C8.82781 4.46062 8.87331 4.35906 8.94481 4.316C9.01875 4.27294 9.11788 4.28594 9.11788 4.28594L10.4561 4.27863C10.4561 4.27863 10.8574 4.23069 10.9233 4.4135C10.9915 4.60363 10.7738 5.04806 10.2277 5.77688C9.33156 6.97288 9.23 6.86075 9.97669 7.55137C10.6876 8.21194 10.8347 8.53369 10.8607 8.57431C11.1499 9.06181 10.5308 9.1 10.5308 9.1H10.5292Z" fill="#7F7F7F"></path>
</svg>
