<svg width="15" height="12" viewBox="0 0 15 12" fill="none" xmlns="http://www.w3.org/2000/svg">
<path d="M15 1.42188C14.4373 1.66636 13.842 1.82743 13.2328 1.9C13.873 1.52512 14.3545 0.929554 14.5869 0.225004C13.9816 0.578938 13.3205 0.827275 12.6319 0.959377C12.3419 0.655481 11.9932 0.413724 11.6069 0.2488C11.2205 0.0838755 10.8047 -0.000771038 10.3847 5.29199e-06C8.68406 5.29199e-06 7.30781 1.35625 7.30781 3.02812C7.30661 3.26067 7.33325 3.49253 7.38719 3.71874C6.16772 3.66158 4.9736 3.35049 3.88124 2.80539C2.78889 2.26029 1.82234 1.49318 1.04344 0.553128C0.77018 1.01379 0.625666 1.53939 0.625 2.075C0.625 3.125 1.17281 4.05312 2 4.59687C1.50991 4.58524 1.02987 4.45552 0.600625 4.21874V4.25624C0.600625 5.72499 1.66313 6.94686 3.06938 7.22498C2.80493 7.29548 2.53243 7.33119 2.25875 7.33123C2.06456 7.33157 1.8708 7.31273 1.68031 7.27498C2.07125 8.4781 3.20906 9.3531 4.55688 9.3781C3.46168 10.2221 2.11707 10.6783 0.734375 10.675C0.488943 10.6746 0.243739 10.66 0 10.6312C1.40662 11.5294 3.0417 12.0045 4.71063 12C10.3781 12 13.4744 7.38436 13.4744 3.38124C13.4744 3.24999 13.4709 3.11875 13.4647 2.99062C14.0657 2.56314 14.5856 2.03191 15 1.42188Z" fill="#7F7F7F"></path>
</svg>
