<svg width="37" height="32" viewBox="0 0 37 32" fill="none" xmlns="http://www.w3.org/2000/svg">
<line x1="37" y1="31.5" x2="-5.86904e-08" y2="31.5" stroke="black"></line>
<path d="M15.4167 22.9167H19.5833C24.7917 22.9167 26.875 20.8333 26.875 15.625V9.37501C26.875 4.16668 24.7917 2.08334 19.5833 2.08334H15.4167C10.2083 2.08334 8.125 4.16668 8.125 9.37501V15.625C8.125 20.8333 10.2083 22.9167 15.4167 22.9167Z" stroke="black" stroke-width="1.5" stroke-linecap="round" stroke-linejoin="round"></path>
<path d="M22.9687 8.63542C21.4617 7.29662 19.5159 6.55716 17.5 6.55716C15.4841 6.55716 13.5383 7.29662 12.0312 8.63542L14.3021 12.2813C15.1824 11.4963 16.3206 11.0626 17.5 11.0626C18.6794 11.0626 19.8176 11.4963 20.6979 12.2813L22.9687 8.63542Z" stroke="black" stroke-width="1.5" stroke-linecap="round" stroke-linejoin="round"></path>
</svg>
