<svg width="37" height="31" viewBox="0 0 37 31" fill="none" xmlns="http://www.w3.org/2000/svg">
<line x1="37" y1="30.5" x2="-5.86904e-08" y2="30.5" stroke="black"></line>
<path d="M19.1734 11.7758C19.0651 11.765 18.9351 11.765 18.8159 11.7758C17.5725 11.7336 16.3943 11.2091 15.5309 10.3133C14.6674 9.4175 14.1866 8.22082 14.1901 6.97666C14.1901 4.32249 16.3351 2.16666 19.0001 2.16666C19.6311 2.15528 20.2581 2.26828 20.8453 2.49922C21.4326 2.73016 21.9687 3.07451 22.4228 3.51261C22.877 3.95071 23.2405 4.47398 23.4925 5.05254C23.7444 5.6311 23.88 6.25363 23.8914 6.88458C23.9027 7.51552 23.7897 8.14253 23.5588 8.72981C23.3279 9.31708 22.9835 9.85312 22.5454 10.3073C22.1073 10.7615 21.584 11.125 21.0055 11.3769C20.4269 11.6289 19.8044 11.7644 19.1734 11.7758V11.7758ZM13.7568 15.7733C11.1351 17.5283 11.1351 20.3883 13.7568 22.1325C16.7359 24.1258 21.6218 24.1258 24.6009 22.1325C27.2226 20.3775 27.2226 17.5175 24.6009 15.7733C21.6326 13.7908 16.7468 13.7908 13.7568 15.7733V15.7733Z" stroke="black" stroke-width="1.5" stroke-linecap="round" stroke-linejoin="round"></path>
</svg>
