<svg width="100" height="99" viewBox="0 0 100 99" fill="none" xmlns="http://www.w3.org/2000/svg">
<g filter="url('#filter0_d_58_739')">
<path d="M32.0691 9.0198L31.9487 9.0599C31.9019 8.99966 31.833 8.9267 31.742 8.84102C31.6551 8.754 31.5487 8.67568 31.423 8.60604C31.3012 8.53507 31.1627 8.48751 31.0075 8.46336C30.8509 8.43519 30.6803 8.45185 30.4956 8.51334C30.3551 8.56012 30.2366 8.62632 30.1402 8.71192C30.0465 8.79218 29.9749 8.88516 29.9253 8.99085C29.8758 9.09655 29.8497 9.2123 29.8469 9.33809C29.8429 9.45986 29.8622 9.58499 29.905 9.71348C29.9745 9.92226 30.1029 10.1003 30.2902 10.2476C30.4815 10.3935 30.7029 10.5294 30.9544 10.6553C31.2046 10.7772 31.4716 10.8957 31.7552 11.0109C32.0389 11.1261 32.3091 11.2547 32.566 11.3966C32.8229 11.5386 33.0517 11.7033 33.2523 11.8907C33.457 12.0768 33.6028 12.3003 33.6897 12.5613C33.7538 12.754 33.7838 12.9648 33.7797 13.1937C33.7796 13.4212 33.7287 13.6433 33.6269 13.86C33.5251 14.0768 33.3691 14.2781 33.159 14.464C32.9501 14.654 32.6711 14.8071 32.3217 14.9234C32.129 14.9875 31.939 15.033 31.7516 15.0597C31.5683 15.085 31.3943 15.0983 31.2297 15.0996C31.0705 15.1035 30.9239 15.0988 30.7901 15.0854C30.659 15.0666 30.5472 15.0458 30.4549 15.023L30.1844 13.8486L30.3109 13.8065C30.3978 13.9337 30.5028 14.0548 30.6259 14.17C30.753 14.2838 30.8921 14.3802 31.0433 14.4592C31.1971 14.5329 31.3624 14.5804 31.539 14.6019C31.7183 14.618 31.9084 14.5927 32.1091 14.5259C32.2497 14.4791 32.3748 14.4129 32.4846 14.3273C32.593 14.2377 32.6774 14.136 32.7376 14.0223C32.8019 13.9072 32.8401 13.7808 32.8522 13.6429C32.8629 13.5011 32.8429 13.3539 32.7921 13.2013C32.732 13.0206 32.6404 12.866 32.5173 12.7375C32.3929 12.605 32.2471 12.4885 32.0799 12.3881C31.9113 12.2836 31.7287 12.1905 31.532 12.1088C31.3393 12.0258 31.1399 11.9427 30.9339 11.8597C30.7278 11.7766 30.5251 11.6902 30.3258 11.6005C30.1291 11.5054 29.9431 11.3956 29.7679 11.2711C29.5926 11.1466 29.4381 11.004 29.3044 10.8434C29.1693 10.6787 29.0643 10.484 28.9894 10.2591C28.9106 10.0222 28.8899 9.7927 28.9275 9.57057C28.965 9.34845 29.0448 9.14574 29.1666 8.96245C29.2871 8.77515 29.4424 8.61195 29.6325 8.47285C29.8212 8.32974 30.03 8.22009 30.2589 8.1439C30.4275 8.08776 30.5881 8.04768 30.7407 8.02365C30.8973 7.99829 31.0398 7.98429 31.1683 7.98167C31.2994 7.97369 31.4152 7.97307 31.5155 7.9798C31.6146 7.98251 31.6955 7.98455 31.7584 7.98591L32.0691 9.0198Z" fill="white"></path>
</g>
<g filter="url('#filter1_d_58_739')">
<path d="M41.6147 11.4321L41.3544 12.6856C41.2444 12.763 41.1171 12.8396 40.9723 12.9152C40.8308 12.9858 40.6819 13.0515 40.5256 13.1121C40.3693 13.1727 40.2071 13.2258 40.0393 13.2714C39.8764 13.3204 39.7201 13.3594 39.5706 13.3886C39.0472 13.4905 38.5463 13.5082 38.0677 13.4419C37.5934 13.3747 37.1655 13.2252 36.784 12.9934C36.4018 12.7574 36.0773 12.4412 35.8104 12.0448C35.5435 11.6484 35.3559 11.1719 35.2475 10.6153C35.1521 10.1252 35.1591 9.65171 35.2685 9.19498C35.3779 8.73825 35.5709 8.32344 35.8475 7.95055C36.1233 7.57351 36.4726 7.25328 36.8956 6.98986C37.3227 6.72563 37.8042 6.54135 38.34 6.43702C38.4605 6.41357 38.5884 6.39513 38.7237 6.38172C38.8624 6.36333 39.0002 6.35159 39.1372 6.34648C39.2742 6.34137 39.4078 6.34122 39.538 6.34603C39.6675 6.34669 39.7891 6.35105 39.9027 6.3591L40.5884 7.38963L40.5221 7.4478C40.3833 7.33257 40.2236 7.23216 40.0431 7.14659C39.8668 7.0602 39.6775 6.99575 39.4752 6.95322C39.2763 6.90573 39.0706 6.87895 38.8581 6.87289C38.6457 6.86683 38.4336 6.88442 38.2217 6.92566C37.877 6.99279 37.573 7.11448 37.3098 7.29075C37.0508 7.4662 36.8422 7.69005 36.684 7.96229C36.5291 8.22956 36.4279 8.54027 36.3804 8.89441C36.333 9.24855 36.3501 9.63538 36.4318 10.0549C36.524 10.5284 36.6641 10.9603 36.8522 11.3505C37.0394 11.7365 37.2706 12.0601 37.5456 12.3213C37.8198 12.5783 38.1359 12.7625 38.4939 12.8739C38.851 12.9811 39.2456 12.9927 39.6776 12.9086C39.8853 12.8681 40.084 12.8036 40.2737 12.7149C40.4667 12.6213 40.6432 12.5093 40.8032 12.379C40.9674 12.2479 41.1113 12.1013 41.2349 11.9393C41.3578 11.7731 41.457 11.5964 41.5327 11.4092L41.6147 11.4321Z" fill="white"></path>
</g>
<g filter="url('#filter2_d_58_739')">
<path d="M44.8325 9.96454C44.9174 9.9756 45.0022 9.98454 45.087 9.99137C45.1759 9.99389 45.2606 9.99437 45.3409 9.99282C45.8698 9.98261 46.2669 9.83316 46.5322 9.54445C46.8018 9.25567 46.9311 8.8278 46.9201 8.26085C46.9111 7.79544 46.794 7.42947 46.5688 7.16293C46.3478 6.89632 46.0257 6.76709 45.6026 6.77526C45.4672 6.77787 45.3468 6.78654 45.2412 6.80128C45.1399 6.8117 45.0533 6.82395 44.9817 6.83803C44.9016 6.85651 44.8321 6.87478 44.7732 6.89285L44.8325 9.96454ZM45.8115 10.3583C45.7271 10.3726 45.6426 10.3827 45.5581 10.3886C45.4777 10.3902 45.3952 10.3917 45.3106 10.3934C45.2429 10.3947 45.1688 10.394 45.0883 10.3913C45.0079 10.3886 44.9252 10.3839 44.8405 10.3771L44.8465 10.688C44.8537 11.0646 44.8643 11.3945 44.8783 11.6778C44.8921 11.9569 44.9073 12.1979 44.924 12.4007C44.9448 12.6035 44.9671 12.7745 44.991 12.9137C45.0148 13.0487 45.0423 13.1603 45.0736 13.2486L45.0741 13.274L43.6081 13.3023L43.6076 13.2769C43.6355 13.1875 43.6587 13.0727 43.6772 12.9327C43.6998 12.7926 43.7156 12.6209 43.7243 12.4175C43.7373 12.2099 43.7452 11.9642 43.7482 11.6806C43.7512 11.397 43.749 11.0648 43.7417 10.684L43.7108 9.08466C43.7035 8.70387 43.6929 8.37393 43.679 8.09485C43.6651 7.81154 43.6477 7.5685 43.6268 7.36574C43.6101 7.15867 43.5878 6.98557 43.5597 6.84643C43.5358 6.70722 43.5082 6.59347 43.4769 6.50519L43.4764 6.47981C43.5442 6.48273 43.6162 6.48558 43.6924 6.48834C43.756 6.49134 43.8259 6.49423 43.9021 6.49699C43.9825 6.49544 44.0629 6.49388 44.1433 6.49233C44.2787 6.48972 44.4794 6.47315 44.7455 6.44262C45.0115 6.41208 45.3244 6.39335 45.684 6.38641C46.0479 6.37938 46.3787 6.41744 46.6766 6.50057C46.9787 6.58362 47.2372 6.70561 47.4519 6.86654C47.6709 7.02738 47.8398 7.22517 47.9586 7.4599C48.0816 7.69455 48.1459 7.95784 48.1516 8.24978C48.156 8.47825 48.1283 8.6883 48.0685 8.87992C48.0086 9.0673 47.9231 9.23826 47.8118 9.39278C47.7004 9.54307 47.5675 9.67684 47.4132 9.7941C47.2588 9.91136 47.0873 10.0141 46.8985 10.1024L48.2611 11.949C48.3783 12.0991 48.4953 12.2429 48.6122 12.3803C48.7334 12.5177 48.8479 12.6403 48.9558 12.7483C49.0637 12.8562 49.1649 12.9474 49.2595 13.0218C49.354 13.0919 49.4332 13.139 49.4971 13.1632L49.4976 13.1886L47.8349 13.2207C47.8341 13.1826 47.8053 13.1176 47.7485 13.0255C47.6959 12.9292 47.6326 12.831 47.5587 12.7308C47.489 12.6263 47.4172 12.5261 47.3434 12.4302C47.2739 12.3342 47.2217 12.2633 47.187 12.2174L45.8115 10.3583Z" fill="white"></path>
</g>
<g filter="url('#filter3_d_58_739')">
<path d="M51.7153 10.6054C51.7957 10.1125 51.9622 9.67018 52.2148 9.27832C52.4715 8.88714 52.7859 8.56324 53.1579 8.30663C53.5306 8.04584 53.9505 7.86351 54.4177 7.75962C54.8848 7.65573 55.369 7.64466 55.8702 7.72641C56.363 7.8068 56.813 7.96595 57.2201 8.20386C57.6321 8.43828 57.974 8.73416 58.2459 9.0915C58.5219 9.44953 58.7185 9.86105 58.8356 10.3261C58.9527 10.7911 58.9673 11.293 58.8794 11.8318C58.8065 12.2787 58.6567 12.698 58.4298 13.0898C58.2037 13.4774 57.9119 13.8071 57.5546 14.079C57.1979 14.3466 56.7805 14.5401 56.3022 14.6593C55.8247 14.7744 55.2977 14.7849 54.7214 14.6909C54.2327 14.6112 53.7845 14.4545 53.3767 14.2207C52.9689 13.987 52.6266 13.6932 52.3499 13.3394C52.0738 12.9813 51.8769 12.5719 51.7592 12.1111C51.6421 11.646 51.6275 11.1441 51.7153 10.6054ZM54.9505 14.2716C55.2679 14.3234 55.5705 14.3085 55.8583 14.2268C56.146 14.1451 56.405 14.0029 56.6353 13.8004C56.8697 13.5985 57.0664 13.339 57.2253 13.0219C57.3891 12.7013 57.5054 12.3301 57.5742 11.9083C57.6525 11.428 57.6729 10.9747 57.6352 10.5483C57.6017 10.1227 57.5048 9.74455 57.3443 9.41395C57.1887 9.07986 56.97 8.80407 56.6882 8.5866C56.407 8.36495 56.0597 8.2204 55.6463 8.15296C55.3288 8.10119 55.0266 8.11406 54.7395 8.19158C54.4525 8.2691 54.1921 8.40671 53.9583 8.6044C53.7287 8.80278 53.5324 9.06017 53.3693 9.37659C53.2062 9.693 53.0899 10.0642 53.0204 10.4902C52.9428 10.9664 52.9224 11.4197 52.9594 11.8502C53.0012 12.2772 53.0996 12.6598 53.2545 12.9981C53.4143 13.3329 53.6344 13.6132 53.9149 13.839C54.196 14.0607 54.5412 14.2049 54.9505 14.2716Z" fill="white"></path>
</g>
<g filter="url('#filter4_d_58_739')">
<path d="M62.2762 17.0411C62.6398 17.1917 62.9798 17.3165 63.2961 17.4154C63.6179 17.5121 63.9014 17.5906 64.1467 17.6509C64.4343 17.7196 64.6988 17.772 64.9405 17.8079L64.4825 18.532C64.4294 18.5055 64.338 18.4607 64.2083 18.3979C64.0809 18.3405 63.9457 18.2799 63.8027 18.2161C63.658 18.1562 63.5239 18.0984 63.4004 18.0426C63.2753 17.9908 63.1893 17.9552 63.1424 17.9358L60.8963 17.0055L60.906 16.982C60.9674 16.9112 61.0345 16.8154 61.1075 16.6945C61.1844 16.5752 61.2676 16.4241 61.3571 16.2413C61.452 16.0562 61.5577 15.8343 61.674 15.5756C61.7903 15.3169 61.9213 15.0116 62.0671 14.6597L62.6792 13.1818C62.8249 12.83 62.9473 12.5234 63.0464 12.2621C63.1471 11.9969 63.2284 11.7673 63.2905 11.5731C63.3581 11.3767 63.4069 11.2091 63.4369 11.0704C63.4708 10.9333 63.4911 10.818 63.4977 10.7245L63.5074 10.7011L64.8621 11.2622L64.8524 11.2856C64.7911 11.3564 64.7239 11.4522 64.6509 11.5732C64.5779 11.6941 64.4939 11.8471 64.3989 12.0322C64.3095 12.215 64.2066 12.4358 64.0903 12.6945C63.9756 12.9493 63.8454 13.2526 63.6996 13.6045L62.2762 17.0411Z" fill="white"></path>
</g>
<g filter="url('#filter5_d_58_739')">
<path d="M67.8951 20.3148C68.2318 20.5187 68.5489 20.6935 68.8466 20.8392C69.1501 20.9835 69.4184 21.104 69.6517 21.2007C69.9256 21.3122 70.1792 21.404 70.4126 21.4761L69.8503 22.1226C69.8019 22.0882 69.7183 22.0302 69.5996 21.9484C69.4823 21.8724 69.3579 21.7921 69.2261 21.7073C69.0922 21.6262 68.9684 21.5488 68.8548 21.475C68.739 21.4048 68.6593 21.3566 68.6159 21.3303L66.5365 20.0707L66.5496 20.049C66.621 19.9884 66.7019 19.9038 66.7924 19.7953C66.8864 19.689 66.9915 19.5523 67.1076 19.3851C67.2295 19.2165 67.3676 19.0132 67.5217 18.7751C67.6758 18.5369 67.8515 18.255 68.0489 17.9292L68.8776 16.561C69.0749 16.2353 69.2423 15.9508 69.3798 15.7075C69.5194 15.4606 69.6347 15.2459 69.7254 15.0634C69.822 14.8795 69.8956 14.7212 69.9462 14.5886C70.0005 14.4582 70.038 14.3473 70.0587 14.2559L70.0718 14.2342L71.326 14.9939L71.3128 15.0156C71.2414 15.0763 71.1605 15.1609 71.0701 15.2694C70.9796 15.3778 70.8735 15.5164 70.7516 15.685C70.6355 15.8521 70.5003 16.0548 70.3462 16.2929C70.1943 16.5274 70.0196 16.8075 69.8223 17.1333L67.8951 20.3148Z" fill="white"></path>
</g>
<g filter="url('#filter6_d_58_739')">
<path d="M79.9903 23.2244C79.7394 23.464 79.4959 23.6963 79.2601 23.9211C79.1602 24.0188 79.0559 24.1179 78.9471 24.2185C78.8443 24.3191 78.7399 24.4182 78.6341 24.5158C78.5313 24.6164 78.433 24.7126 78.3392 24.8044C78.2485 24.8931 78.1668 24.973 78.0942 25.0441C77.943 25.1921 77.76 25.3711 77.5452 25.5812C77.3365 25.7914 77.1216 26.0075 76.9008 26.2296C76.6799 26.4516 76.4681 26.6677 76.2653 26.878C76.0655 27.0853 75.9005 27.2615 75.7702 27.4068C75.7938 27.4429 75.8262 27.4882 75.8675 27.5425C75.9118 27.5938 75.9561 27.6482 76.0004 27.7055C76.0506 27.7629 76.0994 27.8188 76.1467 27.8732C76.197 27.9246 76.2399 27.9685 76.2754 28.0048C76.4382 28.1711 76.613 28.3286 76.8 28.4773C76.9898 28.629 77.1904 28.7554 77.4018 28.8564C77.6191 28.9576 77.8473 29.0274 78.0863 29.0659C78.3253 29.1044 78.5752 29.0967 78.8362 29.0427C79.1031 28.9887 79.3781 28.8795 79.6612 28.715C79.9502 28.5506 80.2506 28.3159 80.5621 28.0111C81.2487 27.3393 81.6168 26.6565 81.6662 25.9628C81.7186 25.2721 81.4267 24.6016 80.7904 23.9513C80.7282 23.8878 80.6601 23.8212 80.5861 23.7515C80.515 23.6849 80.4424 23.6198 80.3683 23.5562C80.2972 23.4895 80.2275 23.4274 80.1593 23.3698C80.0941 23.3153 80.0378 23.2668 79.9903 23.2244ZM79.4026 21.9611C79.4706 22.0367 79.5357 22.1062 79.5979 22.1697C79.6481 22.2271 79.6984 22.2815 79.7487 22.333C79.799 22.3844 79.836 22.4222 79.8597 22.4464C79.9011 22.4887 79.9766 22.5629 80.0862 22.6688C80.1957 22.7747 80.3186 22.8943 80.4548 23.0274C80.597 23.1607 80.7436 23.3014 80.8946 23.4497C81.0516 23.598 81.1937 23.7372 81.321 23.8673C81.6672 24.2212 81.9564 24.5984 82.1884 24.9989C82.4205 25.3995 82.5611 25.8125 82.6103 26.2379C82.6656 26.6635 82.6115 27.0953 82.4481 27.5334C82.2877 27.9686 81.9868 28.4022 81.5451 28.8343C81.0703 29.2989 80.5881 29.6109 80.0985 29.7701C79.609 29.9294 79.1238 29.972 78.6428 29.8979C78.1648 29.8209 77.6985 29.6437 77.2436 29.3664C76.7948 29.0892 76.3706 28.7465 75.9711 28.3381C75.8763 28.2413 75.761 28.1174 75.625 27.9663C75.489 27.8152 75.35 27.661 75.2081 27.5039C75.0662 27.3467 74.9316 27.1971 74.8045 27.0551C74.6803 26.9161 74.5842 26.8118 74.5161 26.7422L74.5343 26.7245C74.6185 26.6835 74.718 26.6217 74.8326 26.5392C74.9501 26.4597 75.086 26.3534 75.24 26.2204C75.4001 26.0875 75.5844 25.9249 75.793 25.7327C76.0015 25.5405 76.2419 25.3112 76.5142 25.0448L77.6575 23.9261C77.9298 23.6598 78.1642 23.4244 78.361 23.2201C78.5577 23.0157 78.7243 22.835 78.8607 22.6779C79 22.5238 79.1107 22.3888 79.1927 22.273C79.2778 22.1602 79.3417 22.0622 79.3845 21.9789L79.4026 21.9611Z" fill="white"></path>
</g>
<g filter="url('#filter7_d_58_739')">
<path d="M82.5367 31.5802C82.9561 31.3091 83.3957 31.1356 83.8557 31.0599C84.3181 30.9877 84.7692 31.0035 85.2091 31.107C85.6525 31.2083 86.0695 31.3973 86.46 31.6739C86.8505 31.9505 87.1837 32.302 87.4594 32.7285C87.7306 33.1478 87.9145 33.5882 88.0114 34.0497C88.1141 34.5124 88.1242 34.9645 88.0417 35.4058C87.9615 35.8508 87.7883 36.2727 87.5222 36.6715C87.256 37.0704 86.8937 37.4181 86.4353 37.7145C86.0551 37.9604 85.6436 38.1307 85.2009 38.2254C84.7618 38.3179 84.3216 38.3229 83.8802 38.2404C83.4424 38.1556 83.0188 37.9759 82.6095 37.7014C82.2037 37.4246 81.8423 37.041 81.5252 36.5506C81.2563 36.1348 81.0717 35.6973 80.9713 35.2381C80.8709 34.779 80.859 34.3281 80.9357 33.8854C81.0159 33.4405 81.1873 33.0198 81.4499 32.6232C81.716 32.2243 82.0783 31.8766 82.5367 31.5802ZM81.9898 36.4391C82.1644 36.7092 82.3786 36.9235 82.6322 37.082C82.8859 37.2405 83.1651 37.3371 83.4698 37.3719C83.7768 37.4102 84.1012 37.3819 84.4429 37.2869C84.7905 37.1932 85.1437 37.0303 85.5026 36.7982C85.9113 36.5339 86.261 36.2448 86.5518 35.9308C86.8449 35.6203 87.0602 35.2947 87.1976 34.9538C87.3409 34.6143 87.3985 34.267 87.3706 33.9122C87.3463 33.555 87.2204 33.2005 86.9929 32.8487C86.8183 32.5786 86.6059 32.3632 86.3558 32.2024C86.1057 32.0416 85.8289 31.9409 85.5254 31.9003C85.2243 31.8632 84.9017 31.8904 84.5577 31.9818C84.2136 32.0732 83.8604 32.2361 83.4979 32.4705C83.0928 32.7325 82.7431 33.0216 82.4487 33.3379C82.1602 33.6555 81.9426 33.9852 81.7958 34.3271C81.6548 34.6702 81.5947 35.0215 81.6155 35.381C81.6398 35.7382 81.7646 36.0909 81.9898 36.4391Z" fill="white"></path>
</g>
<g filter="url('#filter8_d_58_739')">
<path d="M91.3573 44.9271L87.7176 48.112L91.7344 48.2577C91.8229 48.2665 91.9194 48.2724 92.0239 48.2754C92.1324 48.277 92.2394 48.2746 92.345 48.2683C92.456 48.2645 92.5582 48.2548 92.6515 48.2394C92.7503 48.2265 92.8355 48.2072 92.9073 48.1815C92.959 48.163 93.0014 48.1433 93.0344 48.1225C93.0714 48.1002 93.0945 48.083 93.1036 48.0707L93.1275 48.0622L93.5277 49.1797L93.5038 49.1882C93.3956 49.1371 93.2306 49.0906 93.0088 49.0486C92.791 49.0053 92.4804 48.9727 92.077 48.9509L85.984 48.6183L85.8663 48.2896L89.2384 45.2613L84.6997 45.0327L84.5777 44.6921L88.8313 40.8491C88.9874 40.7078 89.1335 40.5634 89.2694 40.4158C89.4108 40.2708 89.5329 40.1349 89.6358 40.0081C89.7442 39.8839 89.8315 39.7762 89.8977 39.685C89.9694 39.5965 90.0156 39.5372 90.0363 39.5073L90.0602 39.4987L90.6467 41.1361L90.6228 41.1447C90.6 41.1439 90.566 41.1493 90.5208 41.161C90.4755 41.1727 90.4369 41.1843 90.4051 41.1957C90.2776 41.2414 90.1413 41.3127 89.9962 41.4096C89.8551 41.5051 89.6834 41.6407 89.4812 41.8165L86.4094 44.535L91.2738 44.6941L91.3573 44.9271Z" fill="white"></path>
</g>
<g filter="url('#filter9_d_58_739')">
<path d="M86.275 59.9434L86.2588 59.6964L90.8813 54.3355L88.6264 54.4836C88.2463 54.5086 87.915 54.5325 87.6323 54.5553C87.3497 54.5781 87.1052 54.6005 86.8988 54.6226C86.697 54.6485 86.5269 54.6745 86.3887 54.7006C86.2507 54.7309 86.1384 54.7637 86.0517 54.7991L86.0263 54.8007L85.9639 53.8506L85.9893 53.849C86.0799 53.8727 86.1955 53.8905 86.3363 53.9025C86.477 53.9145 86.6491 53.9201 86.8527 53.9195C87.0604 53.9186 87.3059 53.9109 87.5891 53.8966C87.8723 53.8822 88.2039 53.8625 88.5839 53.8376L90.1801 53.7327C90.5601 53.7078 90.8894 53.684 91.1678 53.6615C91.4504 53.6387 91.6927 53.6143 91.8945 53.5883C92.1006 53.5621 92.2726 53.5338 92.4106 53.5035C92.5486 53.4733 92.6609 53.4405 92.7476 53.4051L92.773 53.4034L92.7988 53.7961L88.1514 59.165L90.5266 59.009C90.9067 58.984 91.2359 58.9603 91.5143 58.9377C91.797 58.9149 92.0392 58.8905 92.2411 58.8646C92.4474 58.8425 92.6197 58.8185 92.758 58.7924C92.8962 58.7664 93.0087 58.7357 93.0954 58.7003L93.1208 58.6986L93.1828 59.6424L93.1574 59.6441C93.0668 59.6203 92.9511 59.6025 92.8104 59.5905C92.6699 59.5828 92.4958 59.5794 92.2881 59.5803C92.0846 59.5809 91.8412 59.5884 91.558 59.6028C91.279 59.6169 90.9495 59.6364 90.5695 59.6614L86.275 59.9434Z" fill="white"></path>
</g>
<g filter="url('#filter10_d_58_739')">
<path d="M67.3942 87.6053L67.5147 87.5652C67.5615 87.6254 67.6304 87.6984 67.7214 87.784C67.8083 87.8711 67.9147 87.9494 68.0404 88.019C68.1622 88.09 68.3007 88.1376 68.4559 88.1617C68.6124 88.1899 68.7831 88.1732 68.9678 88.1117C69.1083 88.0649 69.2268 87.9987 69.3231 87.9131C69.4168 87.8329 69.4885 87.7399 69.538 87.6342C69.5876 87.5285 69.6137 87.4128 69.6165 87.287C69.6205 87.1652 69.6012 87.0401 69.5584 86.9116C69.4889 86.7028 69.3605 86.5248 69.1732 86.3775C68.9819 86.2316 68.7605 86.0956 68.5089 85.9697C68.2587 85.8479 67.9918 85.7293 67.7082 85.6141C67.4245 85.4989 67.1542 85.3704 66.8974 85.2284C66.6405 85.0865 66.4117 84.9218 66.2111 84.7344C66.0064 84.5483 65.8606 84.3247 65.7737 84.0637C65.7096 83.871 65.6795 83.6602 65.6836 83.4314C65.6837 83.2039 65.7347 82.9818 65.8365 82.765C65.9383 82.5483 66.0942 82.347 66.3044 82.161C66.5132 81.9711 66.7923 81.818 67.1416 81.7017C67.3344 81.6375 67.5244 81.5921 67.7118 81.5654C67.8951 81.5401 68.0691 81.5267 68.2337 81.5255C68.3929 81.5215 68.5395 81.5263 68.6733 81.5397C68.8044 81.5585 68.9161 81.5793 69.0085 81.602L69.279 82.7764L69.1525 82.8185C69.0656 82.6914 68.9606 82.5702 68.8375 82.4551C68.7104 82.3413 68.5713 82.2449 68.4201 82.1659C68.2662 82.0922 68.101 82.0446 67.9244 82.0232C67.745 82.007 67.555 82.0324 67.3542 82.0992C67.2137 82.146 67.0886 82.2122 66.9788 82.2978C66.8704 82.3874 66.786 82.4891 66.7258 82.6028C66.6615 82.7179 66.6233 82.8443 66.6112 82.9821C66.6004 83.124 66.6205 83.2712 66.6712 83.4238C66.7314 83.6044 66.823 83.759 66.9461 83.8876C67.0705 84.0201 67.2163 84.1366 67.3835 84.237C67.5521 84.3414 67.7347 84.4345 67.9314 84.5162C68.1241 84.5993 68.3234 84.6823 68.5295 84.7654C68.7355 84.8484 68.9382 84.9348 69.1376 85.0246C69.3343 85.1196 69.5202 85.2294 69.6955 85.354C69.8707 85.4785 70.0253 85.6211 70.159 85.7817C70.2941 85.9464 70.3991 86.1411 70.4739 86.366C70.5528 86.6029 70.5734 86.8324 70.5359 87.0545C70.4983 87.2766 70.4186 87.4793 70.2968 87.6626C70.1763 87.8499 70.021 88.0131 69.8309 88.1522C69.6421 88.2953 69.4333 88.405 69.2045 88.4812C69.0358 88.5373 68.8752 88.5774 68.7227 88.6014C68.5661 88.6268 68.4236 88.6408 68.2951 88.6434C68.164 88.6514 68.0482 88.652 67.9478 88.6453C67.8488 88.6425 67.7679 88.6405 67.705 88.6391L67.3942 87.6053Z" fill="white"></path>
</g>
<g filter="url('#filter11_d_58_739')">
<path d="M57.8486 85.193L58.109 83.9395C58.2189 83.862 58.3463 83.7855 58.4911 83.7099C58.6326 83.6392 58.7815 83.5736 58.9378 83.513C59.0941 83.4524 59.2562 83.3992 59.4241 83.3536C59.587 83.3047 59.7433 83.2656 59.8928 83.2365C60.4162 83.1346 60.9171 83.1168 61.3956 83.1832C61.87 83.2503 62.2979 83.3998 62.6793 83.6316C63.0616 83.8676 63.3861 84.1838 63.653 84.5802C63.9199 84.9767 64.1075 85.4532 64.2159 86.0098C64.3113 86.4999 64.3043 86.9733 64.1949 87.4301C64.0855 87.8868 63.8925 88.3016 63.6159 88.6745C63.3401 89.0516 62.9907 89.3718 62.5678 89.6352C62.1407 89.8994 61.6592 90.0837 61.1234 90.188C61.0029 90.2115 60.875 90.2299 60.7397 90.2433C60.601 90.2617 60.4632 90.2735 60.3262 90.2786C60.1892 90.2837 60.0556 90.2838 59.9253 90.279C59.7959 90.2784 59.6743 90.274 59.5606 90.266L58.875 89.2354L58.9413 89.1773C59.0801 89.2925 59.2398 89.3929 59.4203 89.4785C59.5966 89.5649 59.7859 89.6293 59.9882 89.6718C60.1871 89.7193 60.3928 89.7461 60.6052 89.7522C60.8177 89.7582 61.0298 89.7406 61.2417 89.6994C61.5864 89.6323 61.8904 89.5106 62.1535 89.3343C62.4125 89.1589 62.6212 88.935 62.7794 88.6628C62.9343 88.3955 63.0355 88.0848 63.0829 87.7307C63.1304 87.3765 63.1133 86.9897 63.0316 86.5701C62.9394 86.0966 62.7993 85.6648 62.6112 85.2746C62.4239 84.8885 62.1928 84.5649 61.9178 84.3037C61.6435 84.0467 61.3274 83.8625 60.9695 83.7512C60.6123 83.6439 60.2178 83.6324 59.7858 83.7165C59.5781 83.7569 59.3794 83.8215 59.1897 83.9101C58.9967 84.0038 58.8202 84.1157 58.6602 84.246C58.496 84.3772 58.3521 84.5237 58.2284 84.6858C58.1056 84.852 58.0063 85.0287 57.9307 85.2158L57.8486 85.193Z" fill="white"></path>
</g>
<g filter="url('#filter12_d_58_739')">
<path d="M54.6304 86.6605C54.5455 86.6495 54.4607 86.6405 54.3759 86.6337C54.287 86.6312 54.2023 86.6307 54.1219 86.6322C53.5931 86.6424 53.196 86.7919 52.9307 87.0806C52.6611 87.3694 52.5318 87.7973 52.5428 88.3642C52.5518 88.8296 52.6689 89.1956 52.8941 89.4621C53.1151 89.7287 53.4372 89.858 53.8603 89.8498C53.9957 89.8472 54.1161 89.8385 54.2216 89.8238C54.323 89.8134 54.4096 89.8011 54.4812 89.787C54.5613 89.7686 54.6308 89.7503 54.6897 89.7322L54.6304 86.6605ZM53.6514 86.2667C53.7358 86.2524 53.8203 86.2423 53.9048 86.2365C53.9852 86.2349 54.0677 86.2333 54.1523 86.2317C54.22 86.2304 54.2941 86.2311 54.3746 86.2337C54.455 86.2364 54.5377 86.2412 54.6224 86.248L54.6164 85.937C54.6092 85.5605 54.5986 85.2305 54.5846 84.9472C54.5708 84.6681 54.5555 84.4272 54.5389 84.2243C54.5181 84.0216 54.4957 83.8506 54.4719 83.7114C54.4481 83.5764 54.4206 83.4648 54.3892 83.3765L54.3888 83.3511L55.8548 83.3228L55.8553 83.3482C55.8274 83.4376 55.8042 83.5523 55.7857 83.6924C55.763 83.8325 55.7473 84.0042 55.7385 84.2075C55.7256 84.4152 55.7177 84.6608 55.7147 84.9445C55.7117 85.2281 55.7139 85.5603 55.7212 85.9411L55.7521 87.5404C55.7594 87.9212 55.77 88.2511 55.7839 88.5302C55.7978 88.8135 55.8152 89.0566 55.8361 89.2593C55.8527 89.4664 55.8751 89.6395 55.9032 89.7786C55.9271 89.9178 55.9547 90.0316 55.986 90.1199L55.9865 90.1453C55.9187 90.1423 55.8467 90.1395 55.7705 90.1367C55.7069 90.1337 55.637 90.1308 55.5608 90.1281C55.4804 90.1296 55.4 90.1312 55.3196 90.1327C55.1842 90.1353 54.9835 90.1519 54.7174 90.1824C54.4514 90.213 54.1385 90.2317 53.7789 90.2387C53.415 90.2457 53.0841 90.2076 52.7863 90.1245C52.4841 90.0414 52.2257 89.9194 52.011 89.7585C51.792 89.5977 51.6231 89.3999 51.5043 89.1652C51.3813 88.9305 51.3169 88.6672 51.3113 88.3753C51.3069 88.1468 51.3346 87.9368 51.3944 87.7451C51.4543 87.5578 51.5398 87.3868 51.6511 87.2323C51.7625 87.082 51.8954 86.9482 52.0497 86.831C52.2041 86.7137 52.3756 86.6109 52.5644 86.5226L51.2018 84.676C51.0846 84.5259 50.9676 84.3822 50.8507 84.2447C50.7295 84.1074 50.615 83.9847 50.5071 83.8768C50.3992 83.7688 50.2979 83.6777 50.2034 83.6033C50.1089 83.5332 50.0297 83.486 49.9658 83.4619L49.9653 83.4365L51.628 83.4044C51.6288 83.4425 51.6575 83.5075 51.7143 83.5995C51.767 83.6959 51.8303 83.7941 51.9041 83.8943C51.9739 83.9987 52.0457 84.0989 52.1195 84.1948C52.189 84.2909 52.2412 84.3618 52.2759 84.4077L53.6514 86.2667Z" fill="white"></path>
</g>
<g filter="url('#filter13_d_58_739')">
<path d="M47.748 86.0197C47.6677 86.5125 47.5012 86.9549 47.2486 87.3467C46.9919 87.7379 46.6775 88.0618 46.3055 88.3184C45.9328 88.5792 45.5129 88.7616 45.0457 88.8654C44.5786 88.9693 44.0944 88.9804 43.5932 88.8986C43.1004 88.8183 42.6504 88.6591 42.2433 88.4212C41.8313 88.1868 41.4894 87.8909 41.2175 87.5336C40.9415 87.1755 40.7449 86.764 40.6278 86.299C40.5107 85.834 40.4961 85.3321 40.584 84.7933C40.6569 84.3464 40.8067 83.9271 41.0336 83.5353C41.2597 83.1477 41.5515 82.818 41.9088 82.5461C42.2655 82.2784 42.6829 82.085 43.1612 81.9657C43.6387 81.8507 44.1657 81.8401 44.742 81.9342C45.2307 82.0139 45.6789 82.1706 46.0867 82.4043C46.4945 82.6381 46.8368 82.9318 47.1135 83.2857C47.3895 83.6437 47.5864 84.0532 47.7042 84.514C47.8213 84.979 47.8359 85.4809 47.748 86.0197ZM44.5129 82.3534C44.1954 82.3016 43.8929 82.3166 43.6051 82.3983C43.3174 82.48 43.0584 82.6221 42.8281 82.8247C42.5937 83.0266 42.397 83.286 42.2381 83.6031C42.0743 83.9237 41.958 84.2949 41.8892 84.7168C41.8109 85.1971 41.7905 85.6504 41.8282 86.0767C41.8616 86.5024 41.9586 86.8805 42.1191 87.2111C42.2747 87.5452 42.4934 87.821 42.7752 88.0385C43.0563 88.2601 43.4036 88.4047 43.8171 88.4721C44.1345 88.5239 44.4368 88.511 44.7238 88.4335C45.0109 88.356 45.2713 88.2184 45.5051 88.0207C45.7347 87.8223 45.931 87.5649 46.0941 87.2485C46.2572 86.9321 46.3735 86.5608 46.443 86.1348C46.5206 85.6587 46.541 85.2054 46.504 84.7749C46.4622 84.3479 46.3638 83.9652 46.2089 83.6269C46.0491 83.2922 45.829 83.0119 45.5485 82.786C45.2674 82.5644 44.9222 82.4202 44.5129 82.3534Z" fill="white"></path>
</g>
<g filter="url('#filter14_d_58_739')">
<path d="M37.1871 79.584C36.8235 79.4334 36.4836 79.3086 36.1673 79.2097C35.8455 79.113 35.562 79.0345 35.3167 78.9742C35.0291 78.9054 34.7645 78.8531 34.5229 78.8171L34.9809 78.093C35.034 78.1196 35.1254 78.1643 35.2551 78.2272C35.3825 78.2846 35.5177 78.3451 35.6607 78.409C35.8054 78.4689 35.9395 78.5267 36.063 78.5824C36.1881 78.6343 36.2741 78.6699 36.321 78.6893L38.5671 79.6196L38.5574 79.6431C38.496 79.7138 38.4288 79.8097 38.3559 79.9306C38.279 80.0499 38.1958 80.201 38.1063 80.3838C38.0113 80.5689 37.9057 80.7908 37.7894 81.0495C37.6731 81.3082 37.542 81.6135 37.3963 81.9654L36.7842 83.4432C36.6384 83.7951 36.516 84.1017 36.417 84.3629C36.3163 84.6281 36.2349 84.8578 36.1728 85.0519C36.1052 85.2484 36.0564 85.416 36.0265 85.5547C35.9926 85.6918 35.9723 85.8071 35.9657 85.9005L35.9559 85.924L34.6012 85.3629L34.611 85.3394C34.6723 85.2687 34.7395 85.1728 34.8125 85.0519C34.8855 84.931 34.9695 84.778 35.0645 84.5929C35.1539 84.4101 35.2568 84.1893 35.3731 83.9306C35.4878 83.6758 35.618 83.3724 35.7638 83.0206L37.1871 79.584Z" fill="white"></path>
</g>
<g filter="url('#filter15_d_58_739')">
<path d="M31.5682 76.3102C31.2316 76.1063 30.9145 75.9315 30.6168 75.7859C30.3133 75.6416 30.0449 75.5211 29.8116 75.4243C29.5378 75.3128 29.2842 75.2211 29.0508 75.149L29.613 74.5025C29.6615 74.5368 29.7451 74.5949 29.8638 74.6766C29.981 74.7526 30.1055 74.833 30.2373 74.9177C30.3712 74.9988 30.495 75.0763 30.6086 75.1501C30.7244 75.2202 30.804 75.2685 30.8475 75.2948L32.9269 76.5543L32.9137 76.576C32.8424 76.6367 32.7615 76.7213 32.671 76.8298C32.5769 76.9361 32.4719 77.0728 32.3558 77.2399C32.2338 77.4085 32.0958 77.6119 31.9417 77.85C31.7876 78.0881 31.6118 78.3701 31.4145 78.6958L30.5858 80.064C30.3884 80.3898 30.221 80.6743 30.0836 80.9176C29.9439 81.1645 29.8287 81.3792 29.738 81.5617C29.6414 81.7456 29.5678 81.9039 29.5172 82.0365C29.4629 82.1669 29.4254 82.2778 29.4047 82.3691L29.3916 82.3908L28.1374 81.6311L28.1506 81.6094C28.2219 81.5488 28.3028 81.4642 28.3933 81.3557C28.4837 81.2472 28.5899 81.1087 28.7118 80.9401C28.8279 80.7729 28.963 80.5703 29.1172 80.3322C29.2691 80.0977 29.4437 79.8175 29.6411 79.4918L31.5682 76.3102Z" fill="white"></path>
</g>
<g filter="url('#filter16_d_58_739')">
<path d="M19.473 73.4007C19.724 73.161 19.9674 72.9288 20.2033 72.7039C20.3031 72.6063 20.4074 72.5072 20.5163 72.4066C20.6191 72.306 20.7234 72.2069 20.8292 72.1093C20.9321 72.0086 21.0304 71.9125 21.1242 71.8207C21.2149 71.7319 21.2966 71.652 21.3692 71.581C21.5204 71.433 21.7034 71.254 21.9181 71.0438C22.1269 70.8336 22.3417 70.6175 22.5626 70.3955C22.7835 70.1735 22.9953 69.9573 23.1981 69.7471C23.3979 69.5398 23.5629 69.3635 23.6931 69.2183C23.6696 69.1821 23.6372 69.1369 23.5959 69.0826C23.5515 69.0312 23.5072 68.9769 23.463 68.9195C23.4127 68.8621 23.364 68.8062 23.3167 68.7519C23.2664 68.7004 23.2235 68.6566 23.1879 68.6203C23.0252 68.4539 22.8503 68.2964 22.6634 68.1477C22.4736 67.996 22.2729 67.8697 22.0616 67.7686C21.8442 67.6675 21.6161 67.5977 21.3771 67.5592C21.1381 67.5206 20.8881 67.5284 20.6272 67.5824C20.3603 67.6364 20.0853 67.7456 19.8022 67.9101C19.5131 68.0745 19.2128 68.3091 18.9013 68.614C18.2147 69.2858 17.8466 69.9685 17.7972 70.6623C17.7447 71.353 18.0367 72.0235 18.673 72.6738C18.7351 72.7373 18.8032 72.8039 18.8773 72.8735C18.9484 72.9401 19.021 73.0053 19.0951 73.0689C19.1662 73.1355 19.2358 73.1976 19.304 73.2552C19.3693 73.3098 19.4256 73.3583 19.473 73.4007ZM20.0608 74.664C19.9927 74.5884 19.9277 74.5189 19.8655 74.4553C19.8153 74.3979 19.765 74.3435 19.7147 74.2921C19.6644 74.2407 19.6274 74.2029 19.6037 74.1787C19.5623 74.1363 19.4868 74.0622 19.3772 73.9563C19.2676 73.8503 19.1447 73.7308 19.0085 73.5976C18.8664 73.4644 18.7198 73.3237 18.5688 73.1754C18.4118 73.027 18.2697 72.8878 18.1424 72.7578C17.7961 72.4039 17.507 72.0267 17.2749 71.6261C17.0429 71.2256 16.9023 70.8126 16.853 70.3871C16.7978 69.9616 16.8519 69.5298 17.0153 69.0917C17.1756 68.6565 17.4766 68.2229 17.9182 67.7908C18.3931 67.3261 18.8753 67.0142 19.3648 66.8549C19.8543 66.6957 20.3396 66.6531 20.8206 66.7272C21.2985 66.8042 21.7649 66.9814 22.2198 67.2586C22.6686 67.5358 23.0928 67.8786 23.4923 68.287C23.587 68.3837 23.7024 68.5077 23.8384 68.6588C23.9744 68.8099 24.1134 68.964 24.2553 69.1212C24.3972 69.2784 24.5317 69.4279 24.6589 69.57C24.783 69.709 24.8792 69.8133 24.9472 69.8828L24.9291 69.9006C24.8449 69.9416 24.7454 70.0033 24.6308 70.0859C24.5132 70.1654 24.3774 70.2716 24.2234 70.4046C24.0633 70.5375 23.879 70.7001 23.6704 70.8924C23.4618 71.0846 23.2214 71.3139 22.9492 71.5803L21.8058 72.699C21.5336 72.9653 21.2991 73.2007 21.1024 73.405C20.9057 73.6093 20.7391 73.7901 20.6027 73.9472C20.4634 74.1013 20.3527 74.2362 20.2706 74.352C20.1856 74.4648 20.1217 74.5629 20.0789 74.6462L20.0608 74.664Z" fill="white"></path>
</g>
<g filter="url('#filter17_d_58_739')">
<path d="M16.9261 65.0448C16.5068 65.316 16.0672 65.4894 15.6071 65.5651C15.1448 65.6373 14.6937 65.6216 14.2538 65.518C13.8104 65.4167 13.3934 65.2278 13.0029 64.9512C12.6123 64.6746 12.2792 64.323 12.0035 63.8966C11.7323 63.4773 11.5483 63.0369 11.4515 62.5754C11.3488 62.1126 11.3387 61.6606 11.4212 61.2192C11.5014 60.7743 11.6746 60.3524 11.9407 59.9535C12.2069 59.5546 12.5692 59.207 13.0276 58.9106C13.4078 58.6647 13.8193 58.4944 14.262 58.3996C14.7011 58.3072 15.1413 58.3022 15.5827 58.3847C16.0205 58.4695 16.4441 58.6491 16.8534 58.9237C17.2592 59.2005 17.6206 59.5841 17.9377 60.0745C18.2066 60.4903 18.3912 60.9277 18.4916 61.3869C18.592 61.8461 18.6038 62.297 18.5272 62.7396C18.447 63.1846 18.2756 63.6053 18.013 64.0019C17.7468 64.4008 17.3846 64.7484 16.9261 65.0448ZM17.4731 60.1859C17.2985 59.9159 17.0843 59.7016 16.8307 59.5431C16.577 59.3846 16.2978 59.288 15.9931 59.2532C15.6861 59.2148 15.3617 59.2432 15.02 59.3381C14.6724 59.4319 14.3192 59.5948 13.9603 59.8269C13.5516 60.0911 13.2019 60.3803 12.9111 60.6943C12.618 61.0048 12.4027 61.3304 12.2653 61.6712C12.122 62.0108 12.0643 62.358 12.0922 62.7129C12.1166 63.0701 12.2425 63.4246 12.47 63.7764C12.6446 64.0464 12.857 64.2619 13.1071 64.4227C13.3572 64.5834 13.634 64.6842 13.9374 64.7248C14.2386 64.7619 14.5612 64.7347 14.9052 64.6433C15.2492 64.5518 15.6025 64.3889 15.965 64.1546C16.3701 63.8926 16.7198 63.6035 17.0142 63.2871C17.3027 62.9696 17.5203 62.6398 17.6671 62.298C17.8081 61.9549 17.8682 61.6036 17.8474 61.2441C17.8231 60.8869 17.6983 60.5342 17.4731 60.1859Z" fill="white"></path>
</g>
<g filter="url('#filter18_d_58_739')">
<path d="M8.1061 51.6979L11.7458 48.5131L7.729 48.3673C7.64046 48.3586 7.54396 48.3527 7.43948 48.3497C7.33103 48.348 7.224 48.3504 7.11839 48.3568C7.00738 48.3606 6.90519 48.3702 6.81184 48.3857C6.71308 48.3986 6.62784 48.4179 6.55613 48.4435C6.50434 48.4621 6.46194 48.4818 6.42894 48.5026C6.39195 48.5248 6.36891 48.5421 6.35981 48.5543L6.33591 48.5629L5.93565 47.4454L5.95955 47.4368C6.06777 47.488 6.23277 47.5345 6.45456 47.5764C6.67236 47.6198 6.98296 47.6524 7.38634 47.6742L13.4794 48.0068L13.5971 48.3355L10.2249 51.3638L14.7636 51.5923L14.8856 51.9329L10.6321 55.7759C10.4759 55.9172 10.3299 56.0617 10.194 56.2093C10.0526 56.3543 9.93048 56.4902 9.82755 56.617C9.71921 56.7412 9.63191 56.8489 9.56567 56.94C9.49402 57.0286 9.44782 57.0879 9.42706 57.1178L9.40316 57.1263L8.81668 55.4889L8.84058 55.4804C8.86336 55.4812 8.89737 55.4758 8.94262 55.4641C8.98787 55.4523 9.02643 55.4408 9.0583 55.4294C9.18579 55.3837 9.32207 55.3124 9.46716 55.2155C9.60826 55.12 9.77993 54.9843 9.98216 54.8085L13.054 52.09L8.18958 51.931L8.1061 51.6979Z" fill="white"></path>
</g>
<g filter="url('#filter19_d_58_739')">
<path d="M13.1879 36.6816L13.2041 36.9287L8.58162 42.2895L10.8365 42.1414C11.2166 42.1165 11.5479 42.0926 11.8306 42.0698C12.1132 42.047 12.3577 42.0245 12.564 42.0025C12.7659 41.9765 12.936 41.9505 13.0742 41.9245C13.2122 41.8942 13.3245 41.8614 13.4112 41.826L13.4366 41.8243L13.499 42.7744L13.4736 42.7761C13.383 42.7524 13.2673 42.7345 13.1266 42.7226C12.9859 42.7106 12.8137 42.7049 12.6102 42.7056C12.4025 42.7065 12.157 42.7141 11.8738 42.7285C11.5906 42.7429 11.259 42.7625 10.879 42.7875L9.28279 42.8923C8.90275 42.9173 8.57352 42.941 8.2951 42.9636C8.01246 42.9864 7.77021 43.0108 7.56836 43.0367C7.36228 43.063 7.19026 43.0913 7.0523 43.1215C6.91433 43.1518 6.80199 43.1846 6.71525 43.22L6.68992 43.2217L6.66412 42.8289L11.3115 37.4601L8.93625 37.6161C8.55621 37.6411 8.22698 37.6648 7.94856 37.6873C7.66592 37.7101 7.42367 37.7345 7.22181 37.7605C7.01545 37.7825 6.84316 37.8066 6.70492 37.8326C6.56668 37.8587 6.45419 37.8894 6.36746 37.9248L6.34212 37.9264L6.28013 36.9827L6.30547 36.981C6.39609 37.0047 6.51176 37.0226 6.6525 37.0345C6.79296 37.0423 6.96706 37.0457 7.1748 37.0448C7.37832 37.0441 7.62168 37.0366 7.90488 37.0223C8.18385 37.0082 8.51336 36.9886 8.8934 36.9637L13.1879 36.6816Z" fill="white"></path>
</g>
<defs>
<filter id="filter0_d_58_739" x="24.374" y="7.55646" width="13.8872" height="15.9363" filterUnits="userSpaceOnUse" color-interpolation-filters="sRGB">
<feFlood flood-opacity="0" result="BackgroundImageFix"></feFlood>
<feColorMatrix in="SourceAlpha" type="matrix" values="0 0 0 0 0 0 0 0 0 0 0 0 0 0 0 0 0 0 127 0" result="hardAlpha"></feColorMatrix>
<feOffset dy="4"></feOffset>
<feGaussianBlur stdDeviation="2"></feGaussianBlur>
<feComposite in2="hardAlpha" operator="out"></feComposite>
<feColorMatrix type="matrix" values="0 0 0 0 0 0 0 0 0 0 0 0 0 0 0 0 0 0 0.25 0"></feColorMatrix>
<feBlend mode="normal" in2="BackgroundImageFix" result="effect1_dropShadow_58_739"></feBlend>
<feBlend mode="normal" in="SourceGraphic" in2="effect1_dropShadow_58_739" result="shape"></feBlend>
</filter>
<filter id="filter1_d_58_739" x="30.5767" y="6.00516" width="15.3306" height="16.0931" filterUnits="userSpaceOnUse" color-interpolation-filters="sRGB">
<feFlood flood-opacity="0" result="BackgroundImageFix"></feFlood>
<feColorMatrix in="SourceAlpha" type="matrix" values="0 0 0 0 0 0 0 0 0 0 0 0 0 0 0 0 0 0 127 0" result="hardAlpha"></feColorMatrix>
<feOffset dy="4"></feOffset>
<feGaussianBlur stdDeviation="2"></feGaussianBlur>
<feComposite in2="hardAlpha" operator="out"></feComposite>
<feColorMatrix type="matrix" values="0 0 0 0 0 0 0 0 0 0 0 0 0 0 0 0 0 0 0.25 0"></feColorMatrix>
<feBlend mode="normal" in2="BackgroundImageFix" result="effect1_dropShadow_58_739"></feBlend>
<feBlend mode="normal" in="SourceGraphic" in2="effect1_dropShadow_58_739" result="shape"></feBlend>
</filter>
<filter id="filter2_d_58_739" x="39.4756" y="6.31537" width="14.022" height="14.9869" filterUnits="userSpaceOnUse" color-interpolation-filters="sRGB">
<feFlood flood-opacity="0" result="BackgroundImageFix"></feFlood>
<feColorMatrix in="SourceAlpha" type="matrix" values="0 0 0 0 0 0 0 0 0 0 0 0 0 0 0 0 0 0 127 0" result="hardAlpha"></feColorMatrix>
<feOffset dy="4"></feOffset>
<feGaussianBlur stdDeviation="2"></feGaussianBlur>
<feComposite in2="hardAlpha" operator="out"></feComposite>
<feColorMatrix type="matrix" values="0 0 0 0 0 0 0 0 0 0 0 0 0 0 0 0 0 0 0.25 0"></feColorMatrix>
<feBlend mode="normal" in2="BackgroundImageFix" result="effect1_dropShadow_58_739"></feBlend>
<feBlend mode="normal" in="SourceGraphic" in2="effect1_dropShadow_58_739" result="shape"></feBlend>
</filter>
<filter id="filter3_d_58_739" x="47.144" y="7.1409" width="16.3096" height="16.1365" filterUnits="userSpaceOnUse" color-interpolation-filters="sRGB">
<feFlood flood-opacity="0" result="BackgroundImageFix"></feFlood>
<feColorMatrix in="SourceAlpha" type="matrix" values="0 0 0 0 0 0 0 0 0 0 0 0 0 0 0 0 0 0 127 0" result="hardAlpha"></feColorMatrix>
<feOffset dy="4"></feOffset>
<feGaussianBlur stdDeviation="2"></feGaussianBlur>
<feComposite in2="hardAlpha" operator="out"></feComposite>
<feColorMatrix type="matrix" values="0 0 0 0 0 0 0 0 0 0 0 0 0 0 0 0 0 0 0.25 0"></feColorMatrix>
<feBlend mode="normal" in2="BackgroundImageFix" result="effect1_dropShadow_58_739"></feBlend>
<feBlend mode="normal" in="SourceGraphic" in2="effect1_dropShadow_58_739" result="shape"></feBlend>
</filter>
<filter id="filter4_d_58_739" x="56.8818" y="10.7011" width="14.3613" height="15.8868" filterUnits="userSpaceOnUse" color-interpolation-filters="sRGB">
<feFlood flood-opacity="0" result="BackgroundImageFix"></feFlood>
<feColorMatrix in="SourceAlpha" type="matrix" values="0 0 0 0 0 0 0 0 0 0 0 0 0 0 0 0 0 0 127 0" result="hardAlpha"></feColorMatrix>
<feOffset dy="4"></feOffset>
<feGaussianBlur stdDeviation="2"></feGaussianBlur>
<feComposite in2="hardAlpha" operator="out"></feComposite>
<feColorMatrix type="matrix" values="0 0 0 0 0 0 0 0 0 0 0 0 0 0 0 0 0 0 0.25 0"></feColorMatrix>
<feBlend mode="normal" in2="BackgroundImageFix" result="effect1_dropShadow_58_739"></feBlend>
<feBlend mode="normal" in="SourceGraphic" in2="effect1_dropShadow_58_739" result="shape"></feBlend>
</filter>
<filter id="filter5_d_58_739" x="62.5166" y="14.2342" width="15.0137" height="15.964" filterUnits="userSpaceOnUse" color-interpolation-filters="sRGB">
<feFlood flood-opacity="0" result="BackgroundImageFix"></feFlood>
<feColorMatrix in="SourceAlpha" type="matrix" values="0 0 0 0 0 0 0 0 0 0 0 0 0 0 0 0 0 0 127 0" result="hardAlpha"></feColorMatrix>
<feOffset dy="4"></feOffset>
<feGaussianBlur stdDeviation="2"></feGaussianBlur>
<feComposite in2="hardAlpha" operator="out"></feComposite>
<feColorMatrix type="matrix" values="0 0 0 0 0 0 0 0 0 0 0 0 0 0 0 0 0 0 0.25 0"></feColorMatrix>
<feBlend mode="normal" in2="BackgroundImageFix" result="effect1_dropShadow_58_739"></feBlend>
<feBlend mode="normal" in="SourceGraphic" in2="effect1_dropShadow_58_739" result="shape"></feBlend>
</filter>
<filter id="filter6_d_58_739" x="70.4619" y="21.9345" width="17.4517" height="17.4435" filterUnits="userSpaceOnUse" color-interpolation-filters="sRGB">
<feFlood flood-opacity="0" result="BackgroundImageFix"></feFlood>
<feColorMatrix in="SourceAlpha" type="matrix" values="0 0 0 0 0 0 0 0 0 0 0 0 0 0 0 0 0 0 127 0" result="hardAlpha"></feColorMatrix>
<feOffset dy="4"></feOffset>
<feGaussianBlur stdDeviation="2"></feGaussianBlur>
<feComposite in2="hardAlpha" operator="out"></feComposite>
<feColorMatrix type="matrix" values="0 0 0 0 0 0 0 0 0 0 0 0 0 0 0 0 0 0 0.25 0"></feColorMatrix>
<feBlend mode="normal" in2="BackgroundImageFix" result="effect1_dropShadow_58_739"></feBlend>
<feBlend mode="normal" in="SourceGraphic" in2="effect1_dropShadow_58_739" result="shape"></feBlend>
</filter>
<filter id="filter7_d_58_739" x="75.5571" y="29.6742" width="17.874" height="17.936" filterUnits="userSpaceOnUse" color-interpolation-filters="sRGB">
<feFlood flood-opacity="0" result="BackgroundImageFix"></feFlood>
<feColorMatrix in="SourceAlpha" type="matrix" values="0 0 0 0 0 0 0 0 0 0 0 0 0 0 0 0 0 0 127 0" result="hardAlpha"></feColorMatrix>
<feOffset dy="4"></feOffset>
<feGaussianBlur stdDeviation="2"></feGaussianBlur>
<feComposite in2="hardAlpha" operator="out"></feComposite>
<feColorMatrix type="matrix" values="0 0 0 0 0 0 0 0 0 0 0 0 0 0 0 0 0 0 0.25 0"></feColorMatrix>
<feBlend mode="normal" in2="BackgroundImageFix" result="effect1_dropShadow_58_739"></feBlend>
<feBlend mode="normal" in="SourceGraphic" in2="effect1_dropShadow_58_739" result="shape"></feBlend>
</filter>
<filter id="filter8_d_58_739" x="79.5522" y="39.4987" width="17.9756" height="20.0119" filterUnits="userSpaceOnUse" color-interpolation-filters="sRGB">
<feFlood flood-opacity="0" result="BackgroundImageFix"></feFlood>
<feColorMatrix in="SourceAlpha" type="matrix" values="0 0 0 0 0 0 0 0 0 0 0 0 0 0 0 0 0 0 127 0" result="hardAlpha"></feColorMatrix>
<feOffset dy="4"></feOffset>
<feGaussianBlur stdDeviation="2"></feGaussianBlur>
<feComposite in2="hardAlpha" operator="out"></feComposite>
<feColorMatrix type="matrix" values="0 0 0 0 0 0 0 0 0 0 0 0 0 0 0 0 0 0 0.25 0"></feColorMatrix>
<feBlend mode="normal" in2="BackgroundImageFix" result="effect1_dropShadow_58_739"></feBlend>
<feBlend mode="normal" in="SourceGraphic" in2="effect1_dropShadow_58_739" result="shape"></feBlend>
</filter>
<filter id="filter9_d_58_739" x="81.875" y="53.4034" width="15.3076" height="14.692" filterUnits="userSpaceOnUse" color-interpolation-filters="sRGB">
<feFlood flood-opacity="0" result="BackgroundImageFix"></feFlood>
<feColorMatrix in="SourceAlpha" type="matrix" values="0 0 0 0 0 0 0 0 0 0 0 0 0 0 0 0 0 0 127 0" result="hardAlpha"></feColorMatrix>
<feOffset dy="4"></feOffset>
<feGaussianBlur stdDeviation="2"></feGaussianBlur>
<feComposite in2="hardAlpha" operator="out"></feComposite>
<feColorMatrix type="matrix" values="0 0 0 0 0 0 0 0 0 0 0 0 0 0 0 0 0 0 0.25 0"></feColorMatrix>
<feBlend mode="normal" in2="BackgroundImageFix" result="effect1_dropShadow_58_739"></feBlend>
<feBlend mode="normal" in="SourceGraphic" in2="effect1_dropShadow_58_739" result="shape"></feBlend>
</filter>
<filter id="filter10_d_58_739" x="61.2021" y="81.1323" width="13.8872" height="15.9363" filterUnits="userSpaceOnUse" color-interpolation-filters="sRGB">
<feFlood flood-opacity="0" result="BackgroundImageFix"></feFlood>
<feColorMatrix in="SourceAlpha" type="matrix" values="0 0 0 0 0 0 0 0 0 0 0 0 0 0 0 0 0 0 127 0" result="hardAlpha"></feColorMatrix>
<feOffset dy="4"></feOffset>
<feGaussianBlur stdDeviation="2"></feGaussianBlur>
<feComposite in2="hardAlpha" operator="out"></feComposite>
<feColorMatrix type="matrix" values="0 0 0 0 0 0 0 0 0 0 0 0 0 0 0 0 0 0 0.25 0"></feColorMatrix>
<feBlend mode="normal" in2="BackgroundImageFix" result="effect1_dropShadow_58_739"></feBlend>
<feBlend mode="normal" in="SourceGraphic" in2="effect1_dropShadow_58_739" result="shape"></feBlend>
</filter>
<filter id="filter11_d_58_739" x="53.5562" y="82.5268" width="15.3306" height="16.0931" filterUnits="userSpaceOnUse" color-interpolation-filters="sRGB">
<feFlood flood-opacity="0" result="BackgroundImageFix"></feFlood>
<feColorMatrix in="SourceAlpha" type="matrix" values="0 0 0 0 0 0 0 0 0 0 0 0 0 0 0 0 0 0 127 0" result="hardAlpha"></feColorMatrix>
<feOffset dy="4"></feOffset>
<feGaussianBlur stdDeviation="2"></feGaussianBlur>
<feComposite in2="hardAlpha" operator="out"></feComposite>
<feColorMatrix type="matrix" values="0 0 0 0 0 0 0 0 0 0 0 0 0 0 0 0 0 0 0.25 0"></feColorMatrix>
<feBlend mode="normal" in2="BackgroundImageFix" result="effect1_dropShadow_58_739"></feBlend>
<feBlend mode="normal" in="SourceGraphic" in2="effect1_dropShadow_58_739" result="shape"></feBlend>
</filter>
<filter id="filter12_d_58_739" x="45.9653" y="83.3228" width="14.022" height="14.9869" filterUnits="userSpaceOnUse" color-interpolation-filters="sRGB">
<feFlood flood-opacity="0" result="BackgroundImageFix"></feFlood>
<feColorMatrix in="SourceAlpha" type="matrix" values="0 0 0 0 0 0 0 0 0 0 0 0 0 0 0 0 0 0 127 0" result="hardAlpha"></feColorMatrix>
<feOffset dy="4"></feOffset>
<feGaussianBlur stdDeviation="2"></feGaussianBlur>
<feComposite in2="hardAlpha" operator="out"></feComposite>
<feColorMatrix type="matrix" values="0 0 0 0 0 0 0 0 0 0 0 0 0 0 0 0 0 0 0.25 0"></feColorMatrix>
<feBlend mode="normal" in2="BackgroundImageFix" result="effect1_dropShadow_58_739"></feBlend>
<feBlend mode="normal" in="SourceGraphic" in2="effect1_dropShadow_58_739" result="shape"></feBlend>
</filter>
<filter id="filter13_d_58_739" x="36.0098" y="81.3476" width="16.3096" height="16.1365" filterUnits="userSpaceOnUse" color-interpolation-filters="sRGB">
<feFlood flood-opacity="0" result="BackgroundImageFix"></feFlood>
<feColorMatrix in="SourceAlpha" type="matrix" values="0 0 0 0 0 0 0 0 0 0 0 0 0 0 0 0 0 0 127 0" result="hardAlpha"></feColorMatrix>
<feOffset dy="4"></feOffset>
<feGaussianBlur stdDeviation="2"></feGaussianBlur>
<feComposite in2="hardAlpha" operator="out"></feComposite>
<feColorMatrix type="matrix" values="0 0 0 0 0 0 0 0 0 0 0 0 0 0 0 0 0 0 0.25 0"></feColorMatrix>
<feBlend mode="normal" in2="BackgroundImageFix" result="effect1_dropShadow_58_739"></feBlend>
<feBlend mode="normal" in="SourceGraphic" in2="effect1_dropShadow_58_739" result="shape"></feBlend>
</filter>
<filter id="filter14_d_58_739" x="28.2202" y="78.0372" width="14.3613" height="15.8868" filterUnits="userSpaceOnUse" color-interpolation-filters="sRGB">
<feFlood flood-opacity="0" result="BackgroundImageFix"></feFlood>
<feColorMatrix in="SourceAlpha" type="matrix" values="0 0 0 0 0 0 0 0 0 0 0 0 0 0 0 0 0 0 127 0" result="hardAlpha"></feColorMatrix>
<feOffset dy="4"></feOffset>
<feGaussianBlur stdDeviation="2"></feGaussianBlur>
<feComposite in2="hardAlpha" operator="out"></feComposite>
<feColorMatrix type="matrix" values="0 0 0 0 0 0 0 0 0 0 0 0 0 0 0 0 0 0 0.25 0"></feColorMatrix>
<feBlend mode="normal" in2="BackgroundImageFix" result="effect1_dropShadow_58_739"></feBlend>
<feBlend mode="normal" in="SourceGraphic" in2="effect1_dropShadow_58_739" result="shape"></feBlend>
</filter>
<filter id="filter15_d_58_739" x="21.9331" y="74.4268" width="15.0137" height="15.964" filterUnits="userSpaceOnUse" color-interpolation-filters="sRGB">
<feFlood flood-opacity="0" result="BackgroundImageFix"></feFlood>
<feColorMatrix in="SourceAlpha" type="matrix" values="0 0 0 0 0 0 0 0 0 0 0 0 0 0 0 0 0 0 127 0" result="hardAlpha"></feColorMatrix>
<feOffset dy="4"></feOffset>
<feGaussianBlur stdDeviation="2"></feGaussianBlur>
<feComposite in2="hardAlpha" operator="out"></feComposite>
<feColorMatrix type="matrix" values="0 0 0 0 0 0 0 0 0 0 0 0 0 0 0 0 0 0 0.25 0"></feColorMatrix>
<feBlend mode="normal" in2="BackgroundImageFix" result="effect1_dropShadow_58_739"></feBlend>
<feBlend mode="normal" in="SourceGraphic" in2="effect1_dropShadow_58_739" result="shape"></feBlend>
</filter>
<filter id="filter16_d_58_739" x="11.5498" y="65.2471" width="17.4517" height="17.4435" filterUnits="userSpaceOnUse" color-interpolation-filters="sRGB">
<feFlood flood-opacity="0" result="BackgroundImageFix"></feFlood>
<feColorMatrix in="SourceAlpha" type="matrix" values="0 0 0 0 0 0 0 0 0 0 0 0 0 0 0 0 0 0 127 0" result="hardAlpha"></feColorMatrix>
<feOffset dy="4"></feOffset>
<feGaussianBlur stdDeviation="2"></feGaussianBlur>
<feComposite in2="hardAlpha" operator="out"></feComposite>
<feColorMatrix type="matrix" values="0 0 0 0 0 0 0 0 0 0 0 0 0 0 0 0 0 0 0.25 0"></feColorMatrix>
<feBlend mode="normal" in2="BackgroundImageFix" result="effect1_dropShadow_58_739"></feBlend>
<feBlend mode="normal" in="SourceGraphic" in2="effect1_dropShadow_58_739" result="shape"></feBlend>
</filter>
<filter id="filter17_d_58_739" x="6.03174" y="57.0149" width="17.874" height="17.936" filterUnits="userSpaceOnUse" color-interpolation-filters="sRGB">
<feFlood flood-opacity="0" result="BackgroundImageFix"></feFlood>
<feColorMatrix in="SourceAlpha" type="matrix" values="0 0 0 0 0 0 0 0 0 0 0 0 0 0 0 0 0 0 127 0" result="hardAlpha"></feColorMatrix>
<feOffset dy="4"></feOffset>
<feGaussianBlur stdDeviation="2"></feGaussianBlur>
<feComposite in2="hardAlpha" operator="out"></feComposite>
<feColorMatrix type="matrix" values="0 0 0 0 0 0 0 0 0 0 0 0 0 0 0 0 0 0 0.25 0"></feColorMatrix>
<feBlend mode="normal" in2="BackgroundImageFix" result="effect1_dropShadow_58_739"></feBlend>
<feBlend mode="normal" in="SourceGraphic" in2="effect1_dropShadow_58_739" result="shape"></feBlend>
</filter>
<filter id="filter18_d_58_739" x="1.93555" y="45.1144" width="17.9756" height="20.0119" filterUnits="userSpaceOnUse" color-interpolation-filters="sRGB">
<feFlood flood-opacity="0" result="BackgroundImageFix"></feFlood>
<feColorMatrix in="SourceAlpha" type="matrix" values="0 0 0 0 0 0 0 0 0 0 0 0 0 0 0 0 0 0 127 0" result="hardAlpha"></feColorMatrix>
<feOffset dy="4"></feOffset>
<feGaussianBlur stdDeviation="2"></feGaussianBlur>
<feComposite in2="hardAlpha" operator="out"></feComposite>
<feColorMatrix type="matrix" values="0 0 0 0 0 0 0 0 0 0 0 0 0 0 0 0 0 0 0.25 0"></feColorMatrix>
<feBlend mode="normal" in2="BackgroundImageFix" result="effect1_dropShadow_58_739"></feBlend>
<feBlend mode="normal" in="SourceGraphic" in2="effect1_dropShadow_58_739" result="shape"></feBlend>
</filter>
<filter id="filter19_d_58_739" x="2.28027" y="36.5296" width="15.3076" height="14.692" filterUnits="userSpaceOnUse" color-interpolation-filters="sRGB">
<feFlood flood-opacity="0" result="BackgroundImageFix"></feFlood>
<feColorMatrix in="SourceAlpha" type="matrix" values="0 0 0 0 0 0 0 0 0 0 0 0 0 0 0 0 0 0 127 0" result="hardAlpha"></feColorMatrix>
<feOffset dy="4"></feOffset>
<feGaussianBlur stdDeviation="2"></feGaussianBlur>
<feComposite in2="hardAlpha" operator="out"></feComposite>
<feColorMatrix type="matrix" values="0 0 0 0 0 0 0 0 0 0 0 0 0 0 0 0 0 0 0.25 0"></feColorMatrix>
<feBlend mode="normal" in2="BackgroundImageFix" result="effect1_dropShadow_58_739"></feBlend>
<feBlend mode="normal" in="SourceGraphic" in2="effect1_dropShadow_58_739" result="shape"></feBlend>
</filter>
</defs>
</svg>
