<svg width="39" height="34" viewBox="0 0 39 34" fill="none" xmlns="http://www.w3.org/2000/svg">
<path d="M24.375 2.41667V14.5C24.375 15.8292 22.9125 16.9167 21.125 16.9167H3.25V7.25C3.25 4.57958 6.15875 2.41667 9.75 2.41667H24.375Z" stroke="black" stroke-width="1.5" stroke-linecap="round" stroke-linejoin="round"></path>
<path d="M35.75 16.9167V20.5417C35.75 22.5475 33.5725 24.1667 30.875 24.1667H29.25C29.25 22.8375 27.7875 21.75 26 21.75C24.2125 21.75 22.75 22.8375 22.75 24.1667H16.25C16.25 22.8375 14.7875 21.75 13 21.75C11.2125 21.75 9.75 22.8375 9.75 24.1667H8.125C5.4275 24.1667 3.25 22.5475 3.25 20.5417V16.9167H21.125C22.9125 16.9167 24.375 15.8292 24.375 14.5V6.04167H27.365C28.535 6.04167 29.6075 6.51292 30.1925 7.26208L32.9713 10.875H30.875C29.9812 10.875 29.25 11.4188 29.25 12.0833V15.7083C29.25 16.3729 29.9812 16.9167 30.875 16.9167H35.75Z" stroke="black" stroke-width="1.5" stroke-linecap="round" stroke-linejoin="round"></path>
<path d="M13 26.5833C13.862 26.5833 14.6886 26.3287 15.2981 25.8755C15.9076 25.4223 16.25 24.8076 16.25 24.1667C16.25 23.5257 15.9076 22.911 15.2981 22.4578C14.6886 22.0046 13.862 21.75 13 21.75C12.138 21.75 11.3114 22.0046 10.7019 22.4578C10.0924 22.911 9.75 23.5257 9.75 24.1667C9.75 24.8076 10.0924 25.4223 10.7019 25.8755C11.3114 26.3287 12.138 26.5833 13 26.5833V26.5833ZM26 26.5833C26.862 26.5833 27.6886 26.3287 28.2981 25.8755C28.9076 25.4223 29.25 24.8076 29.25 24.1667C29.25 23.5257 28.9076 22.911 28.2981 22.4578C27.6886 22.0046 26.862 21.75 26 21.75C25.138 21.75 24.3114 22.0046 23.7019 22.4578C23.0924 22.911 22.75 23.5257 22.75 24.1667C22.75 24.8076 23.0924 25.4223 23.7019 25.8755C24.3114 26.3287 25.138 26.5833 26 26.5833ZM35.75 14.5V16.9167H30.875C29.9812 16.9167 29.25 16.3729 29.25 15.7083V12.0833C29.25 11.4187 29.9812 10.875 30.875 10.875H32.9713L35.75 14.5Z" stroke="black" stroke-width="1.5" stroke-linecap="round" stroke-linejoin="round"></path>
<line x1="38" y1="33.5" x2="1" y2="33.5" stroke="black"></line>
</svg>
